<svg xmlns="http://www.w3.org/2000/svg" viewBox="0 0 52 52"><title>online-map-laptop</title><g id="online-map-laptop"><g id="online-map-laptop-2" data-name="online-map-laptop"><path d="M4,47V18a2,2,0,0,1,2-2H46a2,2,0,0,1,2,2V47" fill="#d7d4d4"/><rect x="6" y="18" width="40" height="30" fill="#40495a"/><circle cx="26" cy="17.5" r="0.5" fill="#d7d4d4"/><polygon points="31.33 46 30 48 22 48 20.67 46 2 46 3 50 49 50 50 46 31.33 46" fill="#eae8e8"/><rect x="7" y="19" width="38" height="26" fill="#16a085"/><g id="map"><path d="M45,24V22H38V19H36v3H7v2h4v6H7v2h8v8H7v2h8v3h2V42H45V40H38V34h7V32H38V24ZM13,30V24H25v6ZM36,40H17V32H36Zm0-10H27V24h9Z" fill="#1abc9c"/></g><g id="map-pointer"><path d="M26,2A10.39,10.39,0,0,0,15.5,12.27C15.5,17.94,22.18,26.33,26,31c3.82-4.67,10.5-13.06,10.5-18.73A10.38,10.38,0,0,0,26,2Zm0,14a4,4,0,1,1,4-4A4,4,0,0,1,26,16Z" fill="#ff6e40"/><g opacity="0.15"><path d="M26,18a6,6,0,0,1-6-6h2a4,4,0,1,0,8,0h2A6,6,0,0,1,26,18Z" fill="#fff"/></g><g opacity="0.1"><path d="M32,12H30a4,4,0,1,0-8,0H20a6,6,0,1,1,12,0Z"/></g></g><circle cx="26" cy="46.5" r="0.5" fill="#ffcd02"/><circle cx="28" cy="46.5" r="0.5" fill="#26c6da"/><circle cx="24" cy="46.5" r="0.5" fill="#ff6e40"/></g></g></svg>