<svg id="Layer_1" data-name="Layer 1" xmlns="http://www.w3.org/2000/svg" viewBox="0 0 48 48"><defs><style>.cls-1{fill:#5b9ad8;}.cls-2{fill:#82bcf4;}.cls-3{fill:#6fabe6;}.cls-4{fill:#edebf2;}.cls-5{fill:#c6c3d8;}</style></defs><title>telephone, phone, communciation, electronic, device</title><rect class="cls-1" x="14.21" y="10.29" width="4.9" height="9.79"/><rect class="cls-1" x="28.9" y="10.29" width="4.9" height="9.79"/><path class="cls-2" d="M44.92,32.5A21.29,21.29,0,0,0,23.57,15.19,21.67,21.67,0,0,0,3,33H3a29.09,29.09,0,0,0-.53,5.59v3H45.54V38.44a28.81,28.81,0,0,0-.5-5.33Z"/><rect class="cls-3" x="2.46" y="36.73" width="43.08" height="4.9"/><path class="cls-3" d="M47.5,15.19V19.1a2,2,0,0,1-2,2H38.69a2,2,0,0,1-2-2v-2a3.2,3.2,0,0,0-.73-2c-1.74-2.28-6.45-3.92-12-3.92s-10.26,1.64-12,3.92a3.2,3.2,0,0,0-.73,2v2a2,2,0,0,1-2,2H2.46a2,2,0,0,1-2-2V15.19C.5,10.32,11,6.38,24,6.38S47.5,10.32,47.5,15.19Z"/><rect class="cls-2" x="0.5" y="17.15" width="10.77" height="1.96"/><rect class="cls-2" x="36.73" y="17.15" width="10.77" height="1.96"/><circle class="cls-4" cx="24" cy="25.96" r="7.83"/><circle class="cls-5" cx="24" cy="25.96" r="2.94"/><circle class="cls-5" cx="29.88" cy="25.96" r="0.98"/><circle class="cls-5" cx="18.13" cy="25.96" r="0.98"/><circle class="cls-5" cx="24" cy="20.08" r="0.98"/><circle class="cls-5" cx="24" cy="31.83" r="0.98"/><circle class="cls-5" cx="28.15" cy="30.11" r="0.98"/><circle class="cls-5" cx="19.85" cy="21.8" r="0.98"/><circle class="cls-5" cx="28.15" cy="21.8" r="0.98"/><circle class="cls-5" cx="19.85" cy="30.11" r="0.98"/></svg>